<?xml version="1.0" encoding="utf-8"?>
<!-- Generator: Adobe Illustrator 16.0.0, SVG Export Plug-In . SVG Version: 6.00 Build 0)  -->
<!DOCTYPE svg PUBLIC "-//W3C//DTD SVG 1.1//EN" "http://www.w3.org/Graphics/SVG/1.1/DTD/svg11.dtd">
<svg version="1.1" id="Layer_1" xmlns="http://www.w3.org/2000/svg" xmlns:xlink="http://www.w3.org/1999/xlink" x="0px" y="0px"
	 width="612px" height="97.5px" viewBox="0 546 612 97.5" enable-background="new 0 546 612 97.5" xml:space="preserve">
<g id="Path_16_1_">
	<rect x="5.01" y="633.469" fill="#959595" width="3.5" height="1"/>
	<path fill="#959595" d="M245.215,634.705c-1.899,0-3.757-0.032-5.522-0.096l0.036-1c1.752,0.063,3.598,0.096,5.486,0.096
		c0.484,0,0.984-0.002,1.499-0.007l0.01,1C246.205,634.703,245.702,634.705,245.215,634.705z M371.289,634.704
		c-2.013,0-4.036-0.027-6.016-0.082l0.027-1c1.971,0.055,3.985,0.082,5.988,0.082l1.01-0.002l0.004,1L371.289,634.704z
		 M379.326,634.551l-0.041-1c1.086-0.044,1.688-0.081,1.69-0.081l5.336-0.001v1h-5.305
		C381.017,634.469,380.41,634.506,379.326,634.551z M253.753,634.483l-0.052-0.998c2.381-0.125,4.726-0.303,6.966-0.528l0.101,0.994
		C258.512,634.179,256.151,634.358,253.753,634.483z M596.495,634.469h-7.006v-1h7.006V634.469z M582.482,634.469h-7.006v-1h7.006
		V634.469z M568.471,634.469h-7.006v-1h7.006V634.469z M554.458,634.469h-7.006v-1h7.006V634.469z M540.446,634.469h-7.006v-1h7.006
		V634.469z M526.434,634.469h-7.006v-1h7.006V634.469z M512.422,634.469h-7.007v-1h7.007V634.469z M498.409,634.469h-7.006v-1h7.006
		V634.469z M484.397,634.469h-7.007v-1h7.007V634.469z M470.385,634.469h-7.006v-1h7.006V634.469z M456.372,634.469h-7.006v-1h7.006
		V634.469z M442.36,634.469h-7.006v-1h7.006V634.469z M428.348,634.469h-7.006v-1h7.006V634.469z M414.336,634.469h-7.006v-1h7.006
		V634.469z M400.323,634.469h-7.006v-1h7.006V634.469z M232.707,634.469h-7.006v-1h7.006V634.469z M218.694,634.469h-7.006v-1h7.006
		V634.469z M204.682,634.469h-7.006v-1h7.006V634.469z M190.67,634.469h-7.006v-1h7.006V634.469z M176.658,634.469h-7.006v-1h7.006
		V634.469z M162.646,634.469h-7.006v-1h7.006V634.469z M148.633,634.469h-7.006v-1h7.006V634.469z M134.621,634.469h-7.006v-1h7.006
		V634.469z M120.608,634.469h-7.006v-1h7.006V634.469z M106.596,634.469H99.59v-1h7.006V634.469z M92.584,634.469h-7.006v-1h7.006
		V634.469z M78.572,634.469h-7.006v-1h7.006V634.469z M64.56,634.469h-7.006v-1h7.006V634.469z M50.547,634.469h-7.006v-1h7.006
		V634.469z M36.535,634.469h-7.006v-1h7.006V634.469z M22.523,634.469h-7.006v-1h7.006V634.469z M358.251,634.31
		c-2.396-0.148-4.754-0.342-7.009-0.573l0.102-0.994c2.242,0.229,4.587,0.422,6.97,0.569L358.251,634.31z M267.749,633.056
		l-0.156-0.988c2.387-0.378,4.69-0.824,6.846-1.327l0.228,0.975C272.487,632.223,270.16,632.674,267.749,633.056z M344.263,632.852
		c-2.425-0.37-4.755-0.799-6.926-1.274l0.215-0.977c2.149,0.471,4.458,0.896,6.861,1.263L344.263,632.852z M281.458,629.813
		l-0.317-0.949c2.321-0.775,4.485-1.65,6.433-2.6l0.438,0.898C286.025,628.132,283.82,629.023,281.458,629.813z M330.517,629.785
		c-2.405-0.753-4.628-1.601-6.606-2.52l0.422-0.906c1.938,0.899,4.12,1.731,6.483,2.471L330.517,629.785z M317.795,623.66
		c-0.375-0.284-0.738-0.575-1.088-0.873c-1.364-1.162-2.843-2.532-4.059-3.757l-0.104-0.105l0.707-0.707l0.11,0.111
		c1.193,1.203,2.649,2.552,3.993,3.696c0.336,0.286,0.684,0.565,1.043,0.838L317.795,623.66z M294.084,623.504l-0.6-0.801
		c0.298-0.224,0.591-0.451,0.876-0.685c1.432-1.162,2.901-2.464,4.368-3.87l0.692,0.723c-1.487,1.424-2.977,2.744-4.429,3.923
		C294.697,623.035,294.394,623.272,294.084,623.504z M304.306,613.793l-0.747-0.664c0.62-0.698,1.232-1.406,1.831-2.123
		c-0.732-0.887-1.444-1.776-2.13-2.662l0.791-0.613c0.642,0.829,1.306,1.661,1.989,2.491c0.669-0.818,1.322-1.645,1.955-2.474
		l0.795,0.605c-0.678,0.891-1.38,1.775-2.1,2.651c0.591,0.706,1.194,1.409,1.809,2.107l-0.752,0.66
		c-0.578-0.658-1.147-1.32-1.706-1.985C305.472,612.464,304.893,613.133,304.306,613.793z M299.145,602.628
		c-1.386-2.09-2.602-4.13-3.613-6.063l0.886-0.463c0.996,1.902,2.194,3.912,3.561,5.974L299.145,602.628z M312.831,602.576
		l-0.844-0.537c1.315-2.068,2.466-4.104,3.418-6.052l0.898,0.439C315.335,598.407,314.167,600.477,312.831,602.576z
		 M292.752,590.042c-0.666-2.121-1.004-4.074-1.004-5.804c0-0.44,0.022-0.875,0.066-1.293l0.994,0.105
		c-0.041,0.386-0.061,0.782-0.061,1.188c0,1.628,0.322,3.48,0.958,5.505L292.752,590.042z M318.884,589.821l-0.963-0.268
		c0.524-1.884,0.79-3.622,0.789-5.167c0-0.54-0.033-1.064-0.098-1.559l0.992-0.129c0.07,0.536,0.105,1.104,0.105,1.688
		C319.711,586.022,319.433,587.851,318.884,589.821z M295.922,577.489l-0.586-0.811c1.674-1.212,3.95-2.016,6.765-2.392l0.132,0.991
		C299.583,575.632,297.46,576.375,295.922,577.489z M315.431,577.283c-1.556-1.113-3.686-1.821-6.329-2.104l0.105-0.994
		c2.818,0.302,5.108,1.07,6.806,2.286L315.431,577.283z"/>
	<rect x="603.49" y="633.469" fill="#959595" width="3.5" height="1"/>
</g>
<g id="Hearts" transform="translate(-490.849 976.524)">
	<g id="Group_1" transform="translate(89.849 94.976)">
		<path id="Path_1" fill="#AF6AB4" d="M717.496-519.318c-5.105,0-9.91,2.113-10.495,7.092c-0.582-4.977-5.389-7.092-10.497-7.092
			c-5.505,0-9.372,5.979-9.372,11.516c0,12.627,19.995,27.023,19.995,27.023s19.742-14.396,19.742-27.023
			C726.871-513.34,723.004-519.318,717.496-519.318z"/>
	</g>
</g>
</svg>
