<?xml version="1.0" encoding="UTF-8" standalone="no"?>
<svg width="36px" height="36px" viewBox="0 0 36 36" version="1.1" xmlns="http://www.w3.org/2000/svg" xmlns:xlink="http://www.w3.org/1999/xlink">
    <!-- Generator: sketchtool 39 (31667) - http://www.bohemiancoding.com/sketch -->
    <title>A8420EBF-E802-483B-BF32-93A519C0B72C</title>
    <desc>Created with sketchtool.</desc>
    <defs></defs>
    <g id="Welcome" stroke="none" stroke-width="1" fill="none" fill-rule="evenodd">
        <g id="Travel-Flight-Icons" transform="translate(-146.000000, -209.000000)" fill="#000000">
            <path d="M180.73288,209.71288 C180.23,209.21 179.51432,209 178.71576,209 C176.6992,209 174.05432,210.26 172.66776,211.60288 L167.88144,216.43288 L154.06288,212.86288 C153.43288,212.65288 152.80288,212.57 152.21432,212.57 C150.91288,212.57 149.69432,213.03144 148.81288,213.91288 L146,216.72576 L160.28,224.03432 C160.028,224.28576 159.27144,225.04288 158.72656,225.58776 C158.348,225.96576 157.97,226.38576 157.63512,226.84776 L154.568,230.79576 L149.528,230.6692 L147.26,232.93776 L157.55,243.22776 L159.818,240.9592 L159.69144,235.9192 L163.64,232.85208 C164.06,232.51552 164.48,232.1392 164.9,231.76064 C165.44656,231.21408 166.24288,230.4592 166.45288,230.20776 L173.76144,244.48776 L176.57432,241.67432 C177.87576,240.37288 178.25432,238.39776 177.62432,236.46576 L174.05432,222.64776 L178.84288,217.77576 C180.73288,215.84432 182.45432,211.39288 180.73288,209.71288 L180.73288,209.71288 Z M172.50144,221.05288 L171.62,221.93432 L171.91288,223.11144 L175.48288,236.93 L175.48288,237.01288 L175.52432,237.09576 C175.90288,238.27288 175.73432,239.40576 175.02144,240.1192 L174.26432,240.87576 L168.30144,229.20144 L166.958,226.598 L164.858,228.65656 C164.60656,228.908 163.85,229.66512 163.30512,230.21 C162.968,230.54656 162.59168,230.84 162.25512,231.13288 L158.30656,234.2 L157.46656,234.87144 L157.508,235.96288 L157.59144,240.12144 L157.46432,240.248 L150.19776,232.98144 L150.32432,232.85432 L154.48288,232.93776 L155.57432,232.9792 L156.24576,232.1392 L159.31288,228.19064 C159.60576,227.81208 159.90144,227.47776 160.23576,227.14064 C160.78288,226.59408 161.53776,225.8392 161.7892,225.58776 L163.84776,223.48776 L161.24432,222.14432 L149.61144,216.18144 L150.368,215.42432 C150.83,214.96288 151.50144,214.71144 152.21656,214.71144 C152.59512,214.71144 152.97368,214.79432 153.39368,214.92144 L153.47656,214.96288 L153.56,214.96288 L167.378,218.53288 L168.55512,218.82576 L169.43656,217.94432 L174.22288,213.15576 C175.27288,212.10576 177.41432,211.18288 178.76,211.18288 C179.09656,211.18288 179.22144,211.22432 179.26288,211.22432 L179.26288,211.22432 C179.64144,211.81288 178.84288,214.75288 177.33144,216.26432 L172.50144,221.05288 Z" id="icon-airplane"></path>
        </g>
    </g>
</svg>