<?xml version="1.0" encoding="UTF-8" standalone="no"?>
<svg width="42px" height="46px" viewBox="0 0 42 46" version="1.1" xmlns="http://www.w3.org/2000/svg" xmlns:xlink="http://www.w3.org/1999/xlink" xmlns:sketch="http://www.bohemiancoding.com/sketch/ns">
    <!-- Generator: sketchtool 3.4 (381) - http://www.bohemiancoding.com/sketch -->
    <title>icon_shuttle</title>
    <desc>Created with sketchtool.</desc>
    <defs></defs>
    <g id="Page-1" stroke="none" stroke-width="1" fill="none" fill-rule="evenodd" sketch:type="MSPage">
        <g id="Travel---Icons" sketch:type="MSArtboardGroup" transform="translate(-307.000000, -118.000000)">
            <g id="icon_shuttle" sketch:type="MSLayerGroup" transform="translate(303.000000, 115.000000)">
                <rect id="Bounds" sketch:type="MSShapeGroup" x="0" y="0" width="50" height="50"></rect>
                <g id="noun_32616" transform="translate(4.687500, 3.125000)" fill="#000000" sketch:type="MSShapeGroup">
                    <path d="M31.9932243,3.55271368e-15 L9.24855201,3.55271368e-15 C4.14845355,3.55271368e-15 0,4.12576784 0,9.19622083 L0,39.981675 C0,40.5464868 0.459662444,41.0034774 1.02705827,41.0034774 L3.87481076,41.0034774 L3.87481076,43.8568121 C3.87481076,44.4223379 4.33519142,44.8807566 4.90186903,44.8807566 L10.8573706,44.8807566 C11.4254846,44.8807566 11.8851471,44.4223379 11.8851471,43.8568121 L11.8851471,41.0034774 L29.355911,41.0034774 L29.355911,43.8568121 C29.355911,44.4223379 29.8155735,44.8807566 30.3836875,44.8807566 L36.3391891,44.8807566 C36.9065849,44.8807566 37.3669656,44.4223379 37.3669656,43.8568121 L37.3669656,41.0034774 L40.2139998,41.0034774 C40.7813956,41.0034774 41.2417763,40.5457728 41.2417763,39.981675 L41.2417763,9.19693488 C41.2424945,4.12576784 37.0933228,3.55271368e-15 31.9932243,3.55271368e-15 L31.9932243,3.55271368e-15 Z M9.24855201,2.04431868 L31.9932243,2.04431868 C35.6116296,2.04431868 38.6123635,4.71342912 39.1129646,8.17441851 L2.12952991,8.17441851 C2.63013105,4.71342912 5.63086494,2.04431868 9.24855201,2.04431868 L9.24855201,2.04431868 Z M39.1876598,10.2187372 L39.1876598,20.9808647 L2.05555299,20.9808647 L2.05555299,10.2187372 L39.1876598,10.2187372 L39.1876598,10.2187372 Z M9.83103051,42.8364379 L5.93036375,42.8364379 L5.93036375,41.0041914 L9.83103051,41.0041914 L9.83103051,42.8364379 L9.83103051,42.8364379 Z M35.3114126,42.8364379 L31.4107458,42.8364379 L31.4107458,41.0041914 L35.3114126,41.0041914 L35.3114126,42.8364379 L35.3114126,42.8364379 Z M36.3399073,38.9605868 L30.3844058,38.9605868 L10.8580888,38.9605868 L4.90258725,38.9605868 L2.05555299,38.9605868 L2.05555299,23.0244693 L39.1876598,23.0244693 L39.1876598,38.9605868 L36.3399073,38.9605868 L36.3399073,38.9605868 Z" id="Shape"></path>
                    <path d="M10.3108247,27.8988487 C7.96943746,27.8988487 6.06496711,29.8034898 6.06496711,32.1443257 C6.06496711,34.4859228 7.96943746,36.3898026 10.3108247,36.3898026 C12.6506895,36.3898026 14.5559211,34.4859228 14.5559211,32.1443257 C14.5559211,29.8034898 12.6506895,27.8988487 10.3108247,27.8988487 L10.3108247,27.8988487 Z M10.3108247,34.2111125 C9.17057823,34.2111125 8.24346197,33.2846743 8.24346197,32.1443257 C8.24346197,31.0047382 9.17057823,30.0775389 10.3108247,30.0775389 C11.4495487,30.0775389 12.376665,31.0047382 12.376665,32.1443257 C12.376665,33.2846743 11.4495487,34.2111125 10.3108247,34.2111125 L10.3108247,34.2111125 Z" id="Shape"></path>
                    <path d="M32.1435644,27.8988487 C29.8034898,27.8988487 27.8988487,29.8034898 27.8988487,32.1443257 C27.8988487,34.4859228 29.8034898,36.3898026 32.1435644,36.3898026 C34.4851615,36.3898026 36.3898026,34.4859228 36.3898026,32.1443257 C36.3898026,29.8034898 34.4851615,27.8988487 32.1435644,27.8988487 L32.1435644,27.8988487 Z M32.1435644,34.2111125 C31.003977,34.2111125 30.0767776,33.2846743 30.0767776,32.1443257 C30.0767776,31.0047382 31.003977,30.0775389 32.1435644,30.0775389 C33.2839131,30.0775389 34.2111125,31.0047382 34.2111125,32.1443257 C34.2111125,33.2846743 33.2839131,34.2111125 32.1435644,34.2111125 L32.1435644,34.2111125 Z" id="Shape"></path>
                </g>
            </g>
        </g>
    </g>
</svg>