<?xml version="1.0" encoding="utf-8"?>
<!-- Generator: Adobe Illustrator 16.0.0, SVG Export Plug-In . SVG Version: 6.00 Build 0)  -->
<!DOCTYPE svg PUBLIC "-//W3C//DTD SVG 1.1//EN" "http://www.w3.org/Graphics/SVG/1.1/DTD/svg11.dtd">
<svg version="1.1" id="Layer_1" xmlns="http://www.w3.org/2000/svg" xmlns:xlink="http://www.w3.org/1999/xlink" x="0px" y="0px"
	 width="78.821px" height="56.295px" viewBox="0 0 78.821 56.295" enable-background="new 0 0 78.821 56.295" xml:space="preserve">
<g>
	<path d="M6.296,18.998c0.829,0,1.5-0.671,1.5-1.5V6.103C7.796,4.392,9.188,3,10.899,3h56.657c1.711,0,3.104,1.392,3.104,3.103
		v11.395c0,0.829,0.672,1.5,1.5,1.5s1.5-0.671,1.5-1.5V6.103C73.66,2.738,70.922,0,67.557,0H10.899C7.534,0,4.796,2.738,4.796,6.103
		v11.395C4.796,18.326,5.467,18.998,6.296,18.998z"/>
	<path d="M74.657,23.962c-0.553-1.66-2.066-2.251-3.298-2.251c-0.078,0-0.143,0.002-0.189,0.005h-6.527v-6.365
		c0-2.053-1.671-3.723-3.725-3.723H45.941c-2.053,0-3.724,1.67-3.724,3.723v6.365h-5.615v-6.365c0-2.053-1.671-3.723-3.725-3.723
		H17.901c-2.053,0-3.724,1.67-3.724,3.723v6.365H8.066c-0.131-0.018-0.32-0.035-0.544-0.035c-1.618,0-2.841,0.873-3.274,2.333
		c-0.453,1.532-4.127,12.09-4.164,12.197L0,36.45v13.743c0,3.364,2.738,6.102,6.104,6.102h66.614c3.365,0,6.104-2.737,6.104-6.102
		V36.461L74.657,23.962z M45.218,15.351c0-0.399,0.324-0.723,0.724-0.723h14.977c0.399,0,0.725,0.324,0.725,0.723v6.365H45.218
		V15.351z M17.178,15.351c0-0.399,0.325-0.723,0.724-0.723h14.977c0.399,0,0.725,0.324,0.725,0.723v6.365H17.178V15.351z
		 M7.125,24.866c0.03-0.104,0.055-0.185,0.397-0.185c0.073,0,0.13,0.006,0.136,0.006h0l0.146,0.029h63.419l0.032,0.01l0.104-0.015
		c0.386,0,0.436,0.15,0.452,0.2l3.427,10.287H3.611C4.715,32.014,6.773,26.052,7.125,24.866z M72.718,53.295H6.104
		C4.392,53.295,3,51.903,3,50.193V38.197h72.821v11.996C75.821,51.903,74.429,53.295,72.718,53.295z"/>
</g>
</svg>
