<?xml version="1.0" encoding="utf-8"?>
<!-- Generator: Adobe Illustrator 22.0.1, SVG Export Plug-In . SVG Version: 6.00 Build 0)  -->
<svg version="1.1" id="Location_nearby" xmlns="http://www.w3.org/2000/svg" xmlns:xlink="http://www.w3.org/1999/xlink" x="0px"
	 y="0px" viewBox="0 0 512 512" style="enable-background:new 0 0 512 512;" xml:space="preserve">
<g>
	<g>
		<path d="M256,28.9c18.9,0,37.5,4,55.2,11.8c17,7.5,32.4,18.2,46,31.8c27.6,27.6,43.3,63.3,43.3,98c0,15.7-5.8,43.1-15.6,73.3
			c-11,34-26.2,69.4-42.8,99.7c-28.9,52.9-64.1,100.7-85.5,128.1c-23.8-32-65.5-90.6-97-149.4c-15.1-28.3-27.7-58.7-36.4-88.1
			c-7.4-25-11.7-48.2-11.7-63.7c0-34.2,15.5-69.6,42.5-97.1c13.6-13.8,29.2-24.8,46.3-32.4C218.1,33,236.9,28.9,256,28.9 M256,226
			c39.1,0,70.9-31.8,70.9-70.9c0-19-7.4-36.8-20.7-50.2C292.8,91.6,275,84.2,256,84.2s-36.8,7.4-50.2,20.7
			c-13.4,13.4-20.7,31.2-20.7,50.2s7.4,36.8,20.7,50.2C219.2,218.6,237,226,256,226 M256,3.9c-93.7,0-169.6,83.2-169.6,166.6
			c0,34.7,17,99.6,51.1,163.5C185.8,423.9,256,512,256,512s61.4-71.2,108-156.5c37.1-67.8,61.5-147.9,61.5-185
			C425.6,86.9,349.6,3.9,256,3.9L256,3.9z M256,201c-25.4,0-45.9-20.5-45.9-45.9s20.5-45.9,45.9-45.9s45.9,20.5,45.9,45.9
			C301.9,180.3,281.3,201,256,201L256,201z"/>
	</g>
</g>
</svg>
